#!OML:ASF \\Waltz\H\Terrain\Patient Classification 1\Animal2\Wednesday\Animal2.ASF
:FULLY-SPECIFIED
:DEGREES
2790
root 11.6614 17.8101 3.7415 7.16074 -7.61736 -0.220541
lowerback 5.31569 2.60361 6.66478
upperback -5.05604 4.13581 0.444283
thorax -7.89815 1.65737 -3.74243
lowerneck 14.8665 12.0645 24.0464
upperneck 1.37522 19.6294 -2.37988
head 0.602571 9.9155 -4.46349
rclavicle -2.13694e-014 -1.82882e-014
rhumerus -30.1125 -2.5608 -67.6237
rradius 124.053
rwrist 35.6758
rhand -2.2027 29.661
rfingers 7.12502
rthumb 23.479 1.07373
lclavicle -2.13694e-014 -1.82882e-014
lhumerus -81.9542 -4.02871 90.2066
lradius 99.2847
lwrist -7.21197
lhand -32.4981 17.9984
lfingers 7.12502
lthumb -5.72969 47.901
rfemur -10.0385 4.88652 17.5931
rtibia 30.0096
rfoot -20.4868 3.32462
rtoes 20.1239
lfemur -30.0179 -1.54299 -15.0687
ltibia 34.7152
lfoot -16.7707 5.23114
ltoes -29.1672
2791
root 11.6721 17.8295 3.86662 6.9997 -7.59225 -0.107251
lowerback 5.27028 2.57594 6.45585
upperback -5.09437 4.07629 0.420211
thorax -7.9297 1.63754 -3.64424
lowerneck 14.5984 12.0178 24.4296
upperneck 2.32622 19.5076 -2.37534
head 0.962729 9.9321 -4.43844
rclavicle 8.17502e-015 2.38542e-014
rhumerus -30.6793 -1.63715 -68.4041
rradius 123.618
rwrist 35.3919
rhand -1.5355 29.4322
rfingers 7.12502
rthumb 24.1188 0.928253
lclavicle 8.17502e-015 2.38542e-014
lhumerus -82.0581 -4.04639 89.7836
lradius 99.7758
lwrist -7.58284
lhand -32.5981 17.0894
lfingers 7.12502
lthumb -5.82619 46.9893
rfemur -9.42696 4.67814 17.4115
rtibia 29.978
rfoot -20.0076 3.4557
rtoes 19.3806
lfemur -29.6622 -1.43241 -15.3684
ltibia 33.6169
lfoot -16.6762 5.81691
ltoes -30.1972
2792
root 11.6895 17.8462 3.99631 6.7421 -7.48222 -0.0353925
lowerback 5.12098 2.54378 6.39043
upperback -4.90257 4.00482 0.407026
thorax -7.64423 1.62148 -3.59891
lowerneck 14.6215 12.0335 23.9713
upperneck 2.40186 19.4664 -2.15321
head 0.914732 9.90792 -4.32811
rclavicle 3.96078e-014 1.59028e-014
rhumerus -30.9659 -0.786796 -69.0766
rradius 123.007
rwrist 35.2621
rhand -1.35905 29.5469
rfingers 7.12502
rthumb 24.288 1.0655
lclavicle 3.96078e-014 1.59028e-014
lhumerus -81.6819 -4.18327 89.4956
lradius 100.271
lwrist -7.85043
lhand -32.9835 16.6424
lfingers 7.12502
lthumb -6.19827 46.5317
rfemur -8.80047 4.4219 17.2245
rtibia 30.1204
rfoot -19.5705 4.20725
rtoes 21.6301
lfemur -29.165 -1.43641 -15.6649
ltibia 32.6135
lfoot -16.6349 6.38078
ltoes -30.794
2793
root 11.7047 17.8526 4.12372 6.60059 -7.46932 0.0601102
lowerback 4.76313 2.54423 6.31014
upperback -4.67271 3.95517 0.34879
thorax -7.19253 1.62283 -3.58162
lowerneck 14.372 12.0356 23.6381
upperneck 2.54411 19.3523 -1.91186
head 0.928395 9.85194 -4.20469
rclavicle -3.6303e-014 -1.11319e-014
rhumerus -30.9697 0.0366911 -69.8493
rradius 122.14
rwrist 35.4476
rhand -1.27718 29.5362
rfingers 7.12502
rthumb 24.3665 1.06535
lclavicle -3.6303e-014 -1.11319e-014
lhumerus -81.0323 -4.4037 89.191
lradius 100.795
lwrist -7.91652
lhand -33.1882 16.4693
lfingers 7.12502
lthumb -6.39594 46.3527
rfemur -8.42569 4.35564 16.9909
rtibia 30.4394
rfoot -18.9829 4.9275
rtoes 24.0655
lfemur -28.7681 -1.40467 -16.0012
ltibia 31.7107
lfoot -16.3423 7.1539
ltoes -33.6089
2794
root 11.7116 17.8595 4.23815 6.69553 -7.19816 0.170887
lowerback 4.38833 2.43377 6.0672
upperback -4.67082 3.7569 0.315385
thorax -7.00385 1.54485 -3.44177
lowerneck 14.2457 12.024 23.5025
upperneck 2.82075 19.2726 -1.68649
head 0.99044 9.82575 -4.10708
rclavicle 9.93923e-017 -1.51076e-014
rhumerus -31.272 0.901309 -70.6134
rradius 121.322
rwrist 35.8007
rhand -0.759255 29.5774
rfingers 7.12502
rthumb 24.8629 1.1742
lclavicle 9.93923e-017 -1.51076e-014
lhumerus -80.4565 -4.63397 88.6546
lradius 101.256
lwrist -8.14587
lhand -32.9943 15.4899
lfingers 7.12502
lthumb -6.20872 45.3789
rfemur -8.38247 4.29883 16.8005
rtibia 30.9112
rfoot -18.3895 5.15146
rtoes 24.9289
lfemur -28.7235 -1.10999 -16.3822
ltibia 30.95
lfoot -16.0842 7.25436
ltoes -36.2386
2795
root 11.7214 17.8691 4.35567 6.68779 -6.87224 0.22844
lowerback 4.31249 2.29226 5.79378
upperback -4.80585 3.54925 0.356814
thorax -7.14208 1.45064 -3.22749
lowerneck 14.8181 11.8146 23.6838
upperneck 2.65079 19.1797 -2.05059
head 0.894667 9.78035 -4.28687
rclavicle -3.77442e-014 -1.19271e-014
rhumerus -32.1578 1.76222 -71.2427
rradius 120.753
rwrist 36.0449
rhand 0.280864 29.8218
rfingers 7.12502
rthumb 25.8594 1.55995
lclavicle -3.77442e-014 -1.19271e-014
lhumerus -80.0771 -4.91845 88.1645
lradius 101.735
lwrist -8.18544
lhand -33.5587 14.532
lfingers 7.12502
lthumb -6.75362 44.4043
rfemur -8.29373 4.25919 16.6465
rtibia 31.5557
rfoot -17.797 5.57067
rtoes 26.3497
lfemur -28.5646 -0.823825 -16.7086
ltibia 30.3501
lfoot -16.0232 7.24441
ltoes -36.9301
2796
root 11.7367 17.8713 4.47948 6.51799 -6.66041 0.0282986
lowerback 4.51907 2.15438 5.86202
upperback -5.02357 3.40162 0.465212
thorax -7.51508 1.35987 -3.15458
lowerneck 14.0266 11.8762 23.3949
upperneck 4.1282 18.9466 -1.33702
head 1.3559 9.75657 -3.9329
rclavicle -1.41883e-014 2.38542e-015
rhumerus -33.3568 2.6105 -71.9118
rradius 120.173
rwrist 36.3552
rhand 1.38898 29.6609
rfingers 7.12502
rthumb 26.9201 1.55814
lclavicle -1.41883e-014 2.38542e-015
lhumerus -79.9437 -5.20314 87.8094
lradius 102.321
lwrist -7.95486
lhand -34.412 14.941
lfingers 7.12502
lthumb -7.57725 44.7853
rfemur -8.08472 4.27965 16.7643
rtibia 32.3579
rfoot -17.0968 5.89358
rtoes 26.5258
lfemur -28.2057 -0.627 -16.7224
ltibia 29.9221
lfoot -15.9761 7.23371
ltoes -36.0442
2797
root 11.7467 17.8625 4.5963 6.26232 -6.35963 -0.00167221
lowerback 4.78959 1.96076 5.74288
upperback -5.17424 3.16326 0.532706
thorax -7.86811 1.23623 -3.01024
lowerneck 14.2371 11.6626 23.1823
upperneck 4.37433 18.6814 -1.22892
head 1.34354 9.63959 -3.89766
rclavicle 1.69961e-014 7.15625e-015
rhumerus -34.4737 3.35701 -72.6517
rradius 119.482
rwrist 36.8348
rhand 0.326905 30.6885
rfingers 7.12502
rthumb 25.9035 2.43308
lclavicle 1.69961e-014 7.15625e-015
lhumerus -79.5802 -5.41928 87.3263
lradius 102.879
lwrist -8.02743
lhand -34.8064 15.3327
lfingers 7.12502
lthumb -7.95788 45.1629
rfemur -7.88689 4.16363 16.7571
rtibia 33.3449
rfoot -16.5638 5.90866
rtoes 23.7472
lfemur -27.8346 -0.332874 -16.9256
ltibia 29.6763
lfoot -15.7924 6.49643
ltoes -35.656
2798
root 11.7545 17.8452 4.7103 6.02392 -6.00822 0.298635
lowerback 4.80656 1.75175 5.23738
upperback -5.09041 2.8362 0.514802
thorax -7.83476 1.10703 -2.71174
lowerneck 14.1654 11.6172 22.774
upperneck 4.27885 18.5558 -1.18539
head 1.26928 9.56401 -3.8475
rclavicle 2.34317e-014 -1.03368e-014
rhumerus -35.212 4.00251 -73.3799
rradius 118.758
rwrist 37.1296
rhand 0.0697254 30.908
rfingers 7.12502
rthumb 25.6572 2.6169
lclavicle 2.34317e-014 -1.03368e-014
lhumerus -78.5998 -5.54183 86.6624
lradius 103.34
lwrist -8.39485
lhand -35.5702 15.0857
lfingers 7.12502
lthumb -8.69509 44.8866
rfemur -7.87402 3.99336 16.3885
rtibia 34.619
rfoot -16.0803 6.00275
rtoes 20.5598
lfemur -27.4678 -0.364984 -17.4136
ltibia 29.5981
lfoot -15.3198 6.46989
ltoes -38.0798
2799
root 11.7694 17.8205 4.82641 6.01008 -5.67251 0.315123
lowerback 4.55654 1.5386 5.062
upperback -4.99309 2.52012 0.583986
thorax -7.61835 0.972381 -2.49614
lowerneck 13.4751 11.7994 22.226
upperneck 4.66589 18.5353 -0.943252
head 1.41961 9.57053 -3.6519
rclavicle -1.99033e-014 -3.65764e-014
rhumerus -35.8432 4.59858 -73.9665
rradius 117.989
rwrist 37.2685
rhand 1.10521 31.132
rfingers 7.12502
rthumb 26.6485 2.98766
lclavicle -1.99033e-014 -3.65764e-014
lhumerus -77.3005 -5.58599 85.8687
lradius 103.677
lwrist -8.9797
lhand -36.7428 14.893
lfingers 7.12502
lthumb -9.82648 44.6437
rfemur -8.30174 3.80296 16.2744
rtibia 36.2145
rfoot -15.2934 5.91382
rtoes 17.9603
lfemur -27.2492 -0.767221 -17.4988
ltibia 29.6784
lfoot -14.4603 6.82497
ltoes -40.144
2800
root 11.785 17.7973 4.94438 6.0392 -5.35022 0.110309
lowerback 4.37146 1.34007 5.09363
upperback -5.0298 2.25496 0.719464
thorax -7.57547 0.845351 -2.33829
lowerneck 13.0561 11.8431 21.8352
upperneck 5.02023 18.4307 -0.889625
head 1.54253 9.53884 -3.55281
rclavicle 1.91827e-014 -8.74653e-015
rhumerus -36.7505 5.04701 -74.5111
rradius 117.216
rwrist 37.465
rhand 2.00605 31.5414
rfingers 7.12502
rthumb 27.5104 3.53117
lclavicle 1.91827e-014 -8.74653e-015
lhumerus -76.0918 -5.67446 85.0867
lradius 104.005
lwrist -9.51035
lhand -37.9545 14.7788
lfingers 7.12502
lthumb -10.9954 44.4708
rfemur -8.99101 3.56227 16.3686
rtibia 38.1187
rfoot -14.3329 5.82801
rtoes 16.474
lfemur -26.9614 -0.932223 -17.3713
ltibia 29.8447
lfoot -13.5888 5.82981
ltoes -38.3279
